<?xml version="1.0" encoding="UTF-8"?>
<svg id="Layer_1" data-name="Layer 1" xmlns="http://www.w3.org/2000/svg" xmlns:xlink="http://www.w3.org/1999/xlink" viewBox="0 0 500 200">
  <defs>
    <style>
      .cls-1 {
        fill: none;
      }

      .cls-1, .cls-2, .cls-3, .cls-4, .cls-5, .cls-6, .cls-7, .cls-8 {
        stroke-width: 0px;
      }

      .cls-2 {
        fill: url(#linear-gradient);
      }

      .cls-3 {
        fill: url(#linear-gradient-4);
      }

      .cls-4 {
        fill: url(#linear-gradient-2);
      }

      .cls-5 {
        fill: url(#linear-gradient-3);
      }

      .cls-6 {
        fill: url(#linear-gradient-5);
      }

      .cls-7 {
        fill: url(#linear-gradient-6);
      }

      .cls-9 {
        fill: #24305e;
        font-family: PingFangSC-Medium-GBpc-EUC-H, 'PingFang SC';
        font-size: 76.91px;
        font-weight: 500;
        letter-spacing: .03em;
      }

      .cls-8 {
        fill: #fff;
      }
    </style>
    <linearGradient id="linear-gradient" x1="63.58" y1="159.18" x2="155.9" y2="49.15" gradientUnits="userSpaceOnUse">
      <stop offset=".21" stop-color="#3d61ab"/>
      <stop offset=".34" stop-color="#4f78b4"/>
      <stop offset=".64" stop-color="#73a8c6"/>
      <stop offset=".87" stop-color="#89c5d1"/>
      <stop offset="1" stop-color="#92d1d6"/>
    </linearGradient>
    <linearGradient id="linear-gradient-2" x1="120.89" y1="207.27" x2="213.21" y2="97.24" xlink:href="#linear-gradient"/>
    <linearGradient id="linear-gradient-3" x1="98.94" y1="188.85" x2="191.27" y2="78.82" xlink:href="#linear-gradient"/>
    <linearGradient id="linear-gradient-4" x1="148.03" y1="214.25" x2="229.09" y2="73.85" gradientUnits="userSpaceOnUse">
      <stop offset=".34" stop-color="#3d61ab"/>
      <stop offset="1" stop-color="#92d1d6"/>
    </linearGradient>
    <linearGradient id="linear-gradient-5" x1="65.54" y1="166.62" x2="146.59" y2="26.22" xlink:href="#linear-gradient-4"/>
    <linearGradient id="linear-gradient-6" x1="122.41" y1="199.45" x2="203.47" y2="59.06" xlink:href="#linear-gradient-4"/>
  </defs>
  <g>
    <polygon class="cls-8" points="114.4 164.93 162.71 164.93 189.67 150.87 222.02 113.43 222.21 109.17 210.08 84.31 182 57 159.01 53.48 153.64 49.74 127 41 90.6 46.3 76 59 65 77 36.37 86.25 26.95 102.97 22 117 23.79 139.21 50 155 114.4 164.93"/>
    <path class="cls-1" d="M62.26,148.57c-17.19,0-31.17-13.98-31.17-31.17s13.98-31.17,31.17-31.17c.62,0,1.25.05,1.92.1l8.67.65,2.56-8.15c4.92-16.97,20.69-28.83,38.36-28.83,12.78,0,24.49,5.94,32.13,16.29l4.07,5.5.15-.03c.49-2.01.94-4.12,1.35-6.36-15.35-21.75-37.23-20-37.23-20-37.26,1.42-44.09,36.71-44.09,36.71-18.38-3.68-30.32,7.84-30.32,7.84-13.89,10.67-12.86,27.44-12.86,27.44,2.21,35.51,35.76,35.77,35.76,35.77h87.93c-.35-1.6-.73-3.12-1.13-4.59H62.26Z"/>
    <path class="cls-1" d="M165.46,148.57h-2.74c-.4,1.46-.78,2.98-1.13,4.57,18.88-.5,28.97-7.48,28.97-7.48,13.16-10.17,18.27-21.14,19.52-30.9-1.92.26-3.77.53-5.54.83-3.18,18.7-19.49,33-39.09,33Z"/>
    <path class="cls-1" d="M165.46,69.26c21.26,0,38.65,16.81,39.61,37.83,1.7.28,3.47.54,5.3.78-.55-12.93-6.91-22.36-6.91-22.36-14.11-20.15-32.34-21.73-42.78-20.6.29,1.58.59,3.1.91,4.56,1.31-.14,2.6-.21,3.86-.21Z"/>
    <path class="cls-2" d="M58.88,111.29c63.08-3.49,83.11-6.52,91.24-39.53l-.15.03-4.07-5.5c-7.64-10.35-19.36-16.29-32.13-16.29-17.66,0-33.44,11.85-38.36,28.83l-2.56,8.15-8.67-.65c-.67-.05-1.3-.1-1.92-.1-17.19,0-31.17,13.98-31.17,31.17s13.98,31.17,31.17,31.17h87.27c-8.49-30.9-29.04-33.87-90.65-37.28Z"/>
    <path class="cls-4" d="M162.71,148.57h2.74c19.6,0,35.91-14.29,39.09-33-25.1,4.17-36.16,12.35-41.83,33Z"/>
    <path class="cls-5" d="M165.46,69.26c-1.26,0-2.56.08-3.86.21,5.34,24.17,16.24,33.19,43.48,37.62-.96-21.02-18.36-37.83-39.61-37.83Z"/>
    <path class="cls-3" d="M210.08,114.75c-1.25,9.76-6.37,20.74-19.52,30.9,0,0-10.09,6.98-28.97,7.48-.8,3.6-1.47,7.55-2.05,11.86,8.38.06,37.11-1.22,50.04-21.01,0,0,10.82-12.38,12.44-30.56-4.26.39-8.23.83-11.93,1.32Z"/>
    <path class="cls-6" d="M114.89,153.16h-52.15s-33.55-.26-35.76-35.77c0,0-1.03-16.78,12.86-27.44,0,0,11.94-11.52,30.32-7.84,0,0,6.83-35.29,44.09-36.71,0,0,21.89-1.75,37.23,20,.86-4.68,1.57-9.88,2.17-15.66-7.41-7.17-26.36-21.15-56.04-13.56,0,0-26,6.87-35.96,33.69,0,0-25.81-.09-39.89,23.45,0,0-14.97,20.14.93,49.66,0,0,10.99,20.07,40.04,21.95h89.97c-.58-4.28-1.25-8.19-2.04-11.77h-35.77Z"/>
    <path class="cls-7" d="M203.46,85.5s6.37,9.43,6.91,22.36c3.67.49,7.61.92,11.84,1.3.03-5.17-.72-10.72-2.68-16.54,0,0-10.52-42.28-60.52-39.15.48,4.12,1.03,7.91,1.67,11.43,10.44-1.13,28.67.45,42.78,20.6Z"/>
    <path class="cls-8" d="M156.64,70.28c1.67-.38,3.32-.64,4.95-.81-.32-1.46-.63-2.99-.91-4.56-5.1.55-8.34,1.75-8.34,1.75-.29-.43-.58-.84-.88-1.25-.41,2.23-.86,4.35-1.35,6.36l6.53-1.48Z"/>
    <path class="cls-8" d="M149.53,148.57c.4,1.47.78,2.99,1.13,4.59h7.66c1.12.02,2.2,0,3.26-.02.35-1.59.73-3.11,1.13-4.57h-13.18Z"/>
    <path class="cls-8" d="M210.37,107.87c-1.83-.24-3.6-.5-5.3-.78.03.61.05,1.21.05,1.82,0,2.27-.2,4.49-.57,6.66,1.77-.29,3.62-.57,5.54-.83.3-2.38.38-4.68.29-6.88Z"/>
    <path class="cls-8" d="M161.59,69.47c-1.63.17-3.28.43-4.95.81l-6.53,1.48c-8.12,33.01-28.16,36.04-91.24,39.53,61.61,3.41,82.16,6.38,90.65,37.28h13.18c5.67-20.65,16.74-28.83,41.83-33,.37-2.17.57-4.39.57-6.66,0-.61-.02-1.22-.05-1.82-27.24-4.43-38.13-13.44-43.48-37.62Z"/>
    <path class="cls-8" d="M158.33,153.16h-7.66c.79,3.58,1.46,7.5,2.04,11.77h4.49s.86.05,2.35.06c.59-4.31,1.26-8.26,2.05-11.86-1.06.03-2.15.04-3.26.02Z"/>
    <path class="cls-8" d="M152.35,66.65s3.24-1.2,8.34-1.75c-.64-3.51-1.18-7.31-1.67-11.43-.6.04-1.21.08-1.83.13,0,0-1.2-1.59-3.55-3.87-.6,5.78-1.31,10.98-2.17,15.66.29.41.59.82.88,1.25Z"/>
    <path class="cls-8" d="M210.08,114.75c3.7-.5,7.67-.93,11.93-1.32.12-1.39.19-2.81.2-4.26-4.23-.39-8.17-.81-11.84-1.3.09,2.2.02,4.5-.29,6.88Z"/>
  </g>
  <text class="cls-9" transform="translate(239.89 131.47) scale(1.05 1)"><tspan x="0" y="0">极星云</tspan></text>
</svg>