<?xml version="1.0" encoding="utf-8"?>
<!-- Generator: Adobe Illustrator 28.1.0, SVG Export Plug-In . SVG Version: 6.00 Build 0)  -->
<svg version="1.1" id="Layer_1" xmlns="http://www.w3.org/2000/svg" xmlns:xlink="http://www.w3.org/1999/xlink" x="0px" y="0px"
	 viewBox="0 0 234 188" style="enable-background:new 0 0 234 188;" xml:space="preserve">
<style type="text/css">
	.st0{fill:#FFFFFF;}
	.st1{fill:none;}
	.st2{fill:url(#SVGID_1_);}
	.st3{fill:url(#SVGID_00000134212831786822016180000001208616388435302528_);}
	.st4{fill:url(#SVGID_00000035531712459535070040000008274692254676965286_);}
	.st5{fill:url(#SVGID_00000003068385590450287210000002504796537287328152_);}
	.st6{fill:url(#SVGID_00000021806181455802506280000006868459786867569024_);}
	.st7{fill:url(#SVGID_00000019663711019992041430000008801718574119204265_);}
</style>
<g>
	<rect x="62.5" y="120.5" class="st0" width="98" height="31"/>
	<path class="st0" d="M160,121v30H63v-30H160 M161,120H62v32h99V120L161,120z"/>
</g>
<g>
	<ellipse class="st0" cx="76" cy="104.5" rx="51.5" ry="44"/>
	<path class="st0" d="M76,61c28.1,0,51,19.5,51,43.5S104.1,148,76,148s-51-19.5-51-43.5S47.9,61,76,61 M76,60
		c-28.7,0-52,19.9-52,44.5S47.3,149,76,149s52-19.9,52-44.5S104.7,60,76,60L76,60z"/>
</g>
<g>
	<ellipse class="st0" cx="114" cy="76.5" rx="51.5" ry="44"/>
	<path class="st0" d="M114,33c28.1,0,51,19.5,51,43.5S142.1,120,114,120s-51-19.5-51-43.5S85.9,33,114,33 M114,32
		c-28.7,0-52,19.9-52,44.5S85.3,121,114,121s52-19.9,52-44.5S142.7,32,114,32L114,32z"/>
</g>
<g>
	<ellipse class="st0" cx="169" cy="97" rx="50.5" ry="52.5"/>
	<path class="st0" d="M169,45c27.6,0,50,23.3,50,52s-22.4,52-50,52s-50-23.3-50-52S141.4,45,169,45 M169,44c-28.2,0-51,23.7-51,53
		s22.8,53,51,53s51-23.7,51-53S197.2,44,169,44L169,44z"/>
</g>
<g>
	<path class="st1" d="M62.3,136.6c-17.2,0-31.2-14-31.2-31.2s14-31.2,31.2-31.2c0.6,0,1.2,0,1.9,0.1l8.7,0.7l2.6-8.2
		c4.9-17,20.7-28.8,38.4-28.8c12.8,0,24.5,5.9,32.1,16.3l4.1,5.5l0.1,0c0.5-2,0.9-4.1,1.4-6.4c-15.3-21.7-37.2-20-37.2-20
		C77,34.8,70.2,70.1,70.2,70.1C51.8,66.4,39.8,78,39.8,78C25.9,88.6,27,105.4,27,105.4c2.2,35.5,35.8,35.8,35.8,35.8h52.2h35.8
		c-0.4-1.6-0.7-3.1-1.1-4.6H62.3z"/>
	<path class="st1" d="M165.5,136.6h-2.7c-0.4,1.5-0.8,3-1.1,4.6c18.9-0.5,29-7.5,29-7.5c13.2-10.2,18.3-21.1,19.5-30.9
		c-1.9,0.3-3.8,0.5-5.5,0.8C201.4,122.3,185.1,136.6,165.5,136.6z"/>
	<path class="st1" d="M165.5,57.3c21.3,0,38.7,16.8,39.6,37.8c1.7,0.3,3.5,0.5,5.3,0.8c-0.5-12.9-6.9-22.4-6.9-22.4
		c-14.1-20.1-32.3-21.7-42.8-20.6c0.3,1.6,0.6,3.1,0.9,4.6C162.9,57.3,164.2,57.3,165.5,57.3z"/>
	<linearGradient id="SVGID_1_" gradientUnits="userSpaceOnUse" x1="63.5787" y1="147.1778" x2="155.9039" y2="37.149">
		<stop  offset="0.2066" style="stop-color:#3D61AB"/>
		<stop  offset="0.3386" style="stop-color:#4F78B4"/>
		<stop  offset="0.6392" style="stop-color:#73A8C6"/>
		<stop  offset="0.8694" style="stop-color:#8AC5D1"/>
		<stop  offset="1" style="stop-color:#92D1D6"/>
	</linearGradient>
	<path class="st2" d="M58.9,99.3c63.1-3.5,83.1-6.5,91.2-39.5l-0.1,0l-4.1-5.5C138.3,43.9,126.5,38,113.8,38
		c-17.7,0-33.4,11.9-38.4,28.8L72.9,75l-8.7-0.7c-0.7-0.1-1.3-0.1-1.9-0.1c-17.2,0-31.2,14-31.2,31.2s14,31.2,31.2,31.2h87.3
		C141,105.7,120.5,102.7,58.9,99.3z"/>
	
		<linearGradient id="SVGID_00000144327494998880100770000009119768291905900959_" gradientUnits="userSpaceOnUse" x1="120.8896" y1="195.2674" x2="213.2148" y2="85.2386">
		<stop  offset="0.2066" style="stop-color:#3D61AB"/>
		<stop  offset="0.3386" style="stop-color:#4F78B4"/>
		<stop  offset="0.6392" style="stop-color:#73A8C6"/>
		<stop  offset="0.8694" style="stop-color:#8AC5D1"/>
		<stop  offset="1" style="stop-color:#92D1D6"/>
	</linearGradient>
	<path style="fill:url(#SVGID_00000144327494998880100770000009119768291905900959_);" d="M162.7,136.6h2.7
		c19.6,0,35.9-14.3,39.1-33C179.4,107.7,168.4,115.9,162.7,136.6z"/>
	
		<linearGradient id="SVGID_00000150077262160907868890000001944621684437743752_" gradientUnits="userSpaceOnUse" x1="98.9417" y1="176.8509" x2="191.2669" y2="66.8221">
		<stop  offset="0.2066" style="stop-color:#3D61AB"/>
		<stop  offset="0.3386" style="stop-color:#4F78B4"/>
		<stop  offset="0.6392" style="stop-color:#73A8C6"/>
		<stop  offset="0.8694" style="stop-color:#8AC5D1"/>
		<stop  offset="1" style="stop-color:#92D1D6"/>
	</linearGradient>
	<path style="fill:url(#SVGID_00000150077262160907868890000001944621684437743752_);" d="M165.5,57.3c-1.3,0-2.6,0.1-3.9,0.2
		c5.3,24.2,16.2,33.2,43.5,37.6C204.1,74.1,186.7,57.3,165.5,57.3z"/>
	
		<linearGradient id="SVGID_00000114759269371019541450000003720288175799573928_" gradientUnits="userSpaceOnUse" x1="148.0347" y1="202.2458" x2="229.0907" y2="61.8527">
		<stop  offset="0.3356" style="stop-color:#3D61AB"/>
		<stop  offset="1" style="stop-color:#92D1D6"/>
	</linearGradient>
	<path style="fill:url(#SVGID_00000114759269371019541450000003720288175799573928_);" d="M210.1,102.7c-1.3,9.8-6.4,20.7-19.5,30.9
		c0,0-10.1,7-29,7.5c-0.8,3.6-1.5,7.5-2.1,11.9c8.4,0.1,37.1-1.2,50-21c0,0,10.8-12.4,12.4-30.6
		C217.8,101.8,213.8,102.3,210.1,102.7z"/>
	
		<linearGradient id="SVGID_00000018235051316896841600000000458679535370105261_" gradientUnits="userSpaceOnUse" x1="65.5385" y1="154.6166" x2="146.5945" y2="14.2235">
		<stop  offset="0.3356" style="stop-color:#3D61AB"/>
		<stop  offset="1" style="stop-color:#92D1D6"/>
	</linearGradient>
	<path style="fill:url(#SVGID_00000018235051316896841600000000458679535370105261_);" d="M114.9,141.2H62.7c0,0-33.6-0.3-35.8-35.8
		c0,0-1-16.8,12.9-27.4c0,0,11.9-11.5,30.3-7.8c0,0,6.8-35.3,44.1-36.7c0,0,21.9-1.7,37.2,20c0.9-4.7,1.6-9.9,2.2-15.7
		c-7.4-7.2-26.4-21.2-56-13.6c0,0-26,6.9-36,33.7c0,0-25.8-0.1-39.9,23.5c0,0-15,20.1,0.9,49.7c0,0,11,20.1,40,21.9h51.7h38.3
		c-0.6-4.3-1.2-8.2-2-11.8H114.9z"/>
	
		<linearGradient id="SVGID_00000137113418483216766780000001560870400526648760_" gradientUnits="userSpaceOnUse" x1="122.4115" y1="187.4522" x2="203.4675" y2="47.0592">
		<stop  offset="0.3356" style="stop-color:#3D61AB"/>
		<stop  offset="1" style="stop-color:#92D1D6"/>
	</linearGradient>
	<path style="fill:url(#SVGID_00000137113418483216766780000001560870400526648760_);" d="M203.5,73.5c0,0,6.4,9.4,6.9,22.4
		c3.7,0.5,7.6,0.9,11.8,1.3c0-5.2-0.7-10.7-2.7-16.5c0,0-10.5-42.3-60.5-39.2c0.5,4.1,1,7.9,1.7,11.4
		C171.1,51.8,189.3,53.4,203.5,73.5z"/>
	<path class="st0" d="M156.6,58.3c1.7-0.4,3.3-0.6,5-0.8c-0.3-1.5-0.6-3-0.9-4.6c-5.1,0.6-8.3,1.7-8.3,1.7c-0.3-0.4-0.6-0.8-0.9-1.3
		c-0.4,2.2-0.9,4.4-1.4,6.4L156.6,58.3z"/>
	<path class="st0" d="M149.5,136.6c0.4,1.5,0.8,3,1.1,4.6h7.7c1.1,0,2.2,0,3.3,0c0.4-1.6,0.7-3.1,1.1-4.6H149.5z"/>
	<path class="st0" d="M210.4,95.9c-1.8-0.2-3.6-0.5-5.3-0.8c0,0.6,0,1.2,0,1.8c0,2.3-0.2,4.5-0.6,6.7c1.8-0.3,3.6-0.6,5.5-0.8
		C210.4,100.4,210.5,98.1,210.4,95.9z"/>
	<path class="st0" d="M161.6,57.5c-1.6,0.2-3.3,0.4-5,0.8l-6.5,1.5c-8.1,33-28.2,36-91.2,39.5c61.6,3.4,82.2,6.4,90.7,37.3h13.2
		c5.7-20.6,16.7-28.8,41.8-33c0.4-2.2,0.6-4.4,0.6-6.7c0-0.6,0-1.2,0-1.8C177.8,90.7,166.9,81.6,161.6,57.5z"/>
	<path class="st0" d="M158.3,141.2h-7.7c0.8,3.6,1.5,7.5,2,11.8h4.5c0,0,0.9,0.1,2.3,0.1c0.6-4.3,1.3-8.3,2.1-11.9
		C160.5,141.2,159.4,141.2,158.3,141.2z"/>
	<path class="st0" d="M152.3,54.7c0,0,3.2-1.2,8.3-1.7c-0.6-3.5-1.2-7.3-1.7-11.4c-0.6,0-1.2,0.1-1.8,0.1c0,0-1.2-1.6-3.5-3.9
		c-0.6,5.8-1.3,11-2.2,15.7C151.8,53.8,152.1,54.2,152.3,54.7z"/>
	<path class="st0" d="M210.1,102.7c3.7-0.5,7.7-0.9,11.9-1.3c0.1-1.4,0.2-2.8,0.2-4.3c-4.2-0.4-8.2-0.8-11.8-1.3
		C210.5,98.1,210.4,100.4,210.1,102.7z"/>
</g>
</svg>
